<mxfile host="app.diagrams.net" modified="2020-06-08T08:31:12.525Z" agent="5.0 (Windows)" etag="g5YpkS5ifOSj0UjP0Yyh" version="13.1.14" type="github">
  <diagram id="C5RBs43oDa-KdzZeNtuy" name="Page-1">
    <mxGraphModel dx="1360" dy="831" grid="1" gridSize="10" guides="1" tooltips="1" connect="1" arrows="1" fold="1" page="1" pageScale="1" pageWidth="827" pageHeight="1169" math="0" shadow="0">
      <root>
        <mxCell id="WIyWlLk6GJQsqaUBKTNV-0" />
        <mxCell id="WIyWlLk6GJQsqaUBKTNV-1" parent="WIyWlLk6GJQsqaUBKTNV-0" />
        <mxCell id="nvHDWdZnBjOkGi9NeRLB-8" style="edgeStyle=orthogonalEdgeStyle;rounded=0;orthogonalLoop=1;jettySize=auto;html=1;exitX=0.5;exitY=1;exitDx=0;exitDy=0;entryX=0.5;entryY=0;entryDx=0;entryDy=0;" parent="WIyWlLk6GJQsqaUBKTNV-1" source="nvHDWdZnBjOkGi9NeRLB-2" target="nvHDWdZnBjOkGi9NeRLB-3" edge="1">
          <mxGeometry relative="1" as="geometry" />
        </mxCell>
        <mxCell id="nvHDWdZnBjOkGi9NeRLB-2" value="Akquire image and profile" style="shape=process;whiteSpace=wrap;html=1;backgroundOutline=1;" parent="WIyWlLk6GJQsqaUBKTNV-1" vertex="1">
          <mxGeometry x="346" y="80" width="136" height="60" as="geometry" />
        </mxCell>
        <mxCell id="nvHDWdZnBjOkGi9NeRLB-9" style="edgeStyle=orthogonalEdgeStyle;rounded=0;orthogonalLoop=1;jettySize=auto;html=1;exitX=0.5;exitY=1;exitDx=0;exitDy=0;entryX=0.5;entryY=0;entryDx=0;entryDy=0;" parent="WIyWlLk6GJQsqaUBKTNV-1" source="nvHDWdZnBjOkGi9NeRLB-3" target="nvHDWdZnBjOkGi9NeRLB-4" edge="1">
          <mxGeometry relative="1" as="geometry" />
        </mxCell>
        <UserObject label="Check for rouge processes" link="https://github.com/sn0b4ll/cheatsheets/blob/master/flowcharts/dfir/find_rogue_process.svg" id="nvHDWdZnBjOkGi9NeRLB-3">
          <mxCell style="shape=process;whiteSpace=wrap;html=1;backgroundOutline=1;" parent="WIyWlLk6GJQsqaUBKTNV-1" vertex="1">
            <mxGeometry x="346" y="170" width="136" height="60" as="geometry" />
          </mxCell>
        </UserObject>
        <mxCell id="nvHDWdZnBjOkGi9NeRLB-10" style="edgeStyle=orthogonalEdgeStyle;rounded=0;orthogonalLoop=1;jettySize=auto;html=1;exitX=0.5;exitY=1;exitDx=0;exitDy=0;entryX=0.5;entryY=0;entryDx=0;entryDy=0;" parent="WIyWlLk6GJQsqaUBKTNV-1" source="nvHDWdZnBjOkGi9NeRLB-4" target="nvHDWdZnBjOkGi9NeRLB-5" edge="1">
          <mxGeometry relative="1" as="geometry" />
        </mxCell>
        <mxCell id="nvHDWdZnBjOkGi9NeRLB-4" value="Check for rouge handles and dlls" style="shape=process;whiteSpace=wrap;html=1;backgroundOutline=1;" parent="WIyWlLk6GJQsqaUBKTNV-1" vertex="1">
          <mxGeometry x="346" y="260" width="136" height="60" as="geometry" />
        </mxCell>
        <mxCell id="nvHDWdZnBjOkGi9NeRLB-11" style="edgeStyle=orthogonalEdgeStyle;rounded=0;orthogonalLoop=1;jettySize=auto;html=1;exitX=0.5;exitY=1;exitDx=0;exitDy=0;entryX=0.5;entryY=0;entryDx=0;entryDy=0;" parent="WIyWlLk6GJQsqaUBKTNV-1" source="nvHDWdZnBjOkGi9NeRLB-5" target="nvHDWdZnBjOkGi9NeRLB-6" edge="1">
          <mxGeometry relative="1" as="geometry" />
        </mxCell>
        <mxCell id="nvHDWdZnBjOkGi9NeRLB-5" value="Check for network artifacts" style="shape=process;whiteSpace=wrap;html=1;backgroundOutline=1;" parent="WIyWlLk6GJQsqaUBKTNV-1" vertex="1">
          <mxGeometry x="346" y="350" width="136" height="60" as="geometry" />
        </mxCell>
        <mxCell id="nvHDWdZnBjOkGi9NeRLB-12" style="edgeStyle=orthogonalEdgeStyle;rounded=0;orthogonalLoop=1;jettySize=auto;html=1;exitX=0.5;exitY=1;exitDx=0;exitDy=0;entryX=0.5;entryY=0;entryDx=0;entryDy=0;" parent="WIyWlLk6GJQsqaUBKTNV-1" source="nvHDWdZnBjOkGi9NeRLB-6" target="nvHDWdZnBjOkGi9NeRLB-7" edge="1">
          <mxGeometry relative="1" as="geometry" />
        </mxCell>
        <mxCell id="nvHDWdZnBjOkGi9NeRLB-6" value="&lt;div&gt;Check for memory injection&lt;/div&gt;" style="shape=process;whiteSpace=wrap;html=1;backgroundOutline=1;" parent="WIyWlLk6GJQsqaUBKTNV-1" vertex="1">
          <mxGeometry x="346" y="440" width="136" height="60" as="geometry" />
        </mxCell>
        <mxCell id="Xuz223qV_tR2DP_0XN8k-4" style="edgeStyle=orthogonalEdgeStyle;rounded=0;orthogonalLoop=1;jettySize=auto;html=1;exitX=0.5;exitY=1;exitDx=0;exitDy=0;entryX=0.5;entryY=0;entryDx=0;entryDy=0;" parent="WIyWlLk6GJQsqaUBKTNV-1" source="nvHDWdZnBjOkGi9NeRLB-7" target="Xuz223qV_tR2DP_0XN8k-3" edge="1">
          <mxGeometry relative="1" as="geometry" />
        </mxCell>
        <mxCell id="nvHDWdZnBjOkGi9NeRLB-7" value="&lt;div&gt;Check for hooking&lt;/div&gt;&amp;nbsp;/ rootkits" style="shape=process;whiteSpace=wrap;html=1;backgroundOutline=1;" parent="WIyWlLk6GJQsqaUBKTNV-1" vertex="1">
          <mxGeometry x="346" y="530" width="136" height="60" as="geometry" />
        </mxCell>
        <mxCell id="Xuz223qV_tR2DP_0XN8k-1" style="edgeStyle=orthogonalEdgeStyle;rounded=0;orthogonalLoop=1;jettySize=auto;html=1;exitX=0.5;exitY=1;exitDx=0;exitDy=0;entryX=0.5;entryY=0;entryDx=0;entryDy=0;" parent="WIyWlLk6GJQsqaUBKTNV-1" source="Xuz223qV_tR2DP_0XN8k-0" target="nvHDWdZnBjOkGi9NeRLB-2" edge="1">
          <mxGeometry relative="1" as="geometry" />
        </mxCell>
        <mxCell id="Xuz223qV_tR2DP_0XN8k-0" value="" style="ellipse;whiteSpace=wrap;html=1;aspect=fixed;" parent="WIyWlLk6GJQsqaUBKTNV-1" vertex="1">
          <mxGeometry x="399" y="20" width="30" height="30" as="geometry" />
        </mxCell>
        <mxCell id="Xuz223qV_tR2DP_0XN8k-5" value="" style="group" parent="WIyWlLk6GJQsqaUBKTNV-1" vertex="1" connectable="0">
          <mxGeometry x="394" y="620" width="40" height="40" as="geometry" />
        </mxCell>
        <mxCell id="Xuz223qV_tR2DP_0XN8k-3" value="" style="ellipse;whiteSpace=wrap;html=1;aspect=fixed;" parent="Xuz223qV_tR2DP_0XN8k-5" vertex="1">
          <mxGeometry width="40" height="40" as="geometry" />
        </mxCell>
        <mxCell id="Xuz223qV_tR2DP_0XN8k-2" value="" style="ellipse;whiteSpace=wrap;html=1;aspect=fixed;" parent="Xuz223qV_tR2DP_0XN8k-5" vertex="1">
          <mxGeometry x="5" y="5" width="30" height="30" as="geometry" />
        </mxCell>
      </root>
    </mxGraphModel>
  </diagram>
</mxfile>
